<svg width="53" height="45" viewBox="0 0 53 45" fill="none" xmlns="http://www.w3.org/2000/svg">
<path d="M6.28926 25.5301C2.95979 25.5301 0.266968 28.432 0.266968 32.0201C0.266968 36.8875 6.28926 44.0729 6.28926 44.0729C6.28926 44.0729 12.3115 36.8875 12.3115 32.0201C12.3115 28.432 9.61872 25.5301 6.28926 25.5301ZM6.28926 34.3379C5.10201 34.3379 4.13844 33.2995 4.13844 32.0201C4.13844 30.7406 5.10201 29.7022 6.28926 29.7022C7.47651 29.7022 8.44007 30.7406 8.44007 32.0201C8.44007 33.2995 7.47651 34.3379 6.28926 34.3379Z" fill="#B8B8B8"/>
<path d="M41.3831 31.4604L43.0188 29.6977L39.5672 17.1643L44.0654 12.3168C44.7442 11.5852 44.6978 10.3542 43.9615 9.56063C43.2251 8.7671 42.0827 8.71705 41.4039 9.44859L36.9057 14.2961L25.2755 10.5764L23.6398 12.3392L33.2253 18.2623L28.7271 23.1098L25.2824 22.0417L24.0556 23.3638L28.4222 26.3067L31.153 31.0123L32.3798 29.6902L31.3886 25.978L35.8868 21.1305L41.3831 31.4604Z" fill="#B8B8B8"/>
<line y1="-0.5" x2="4.42684" y2="-0.5" transform="matrix(0.680202 -0.733025 0.680202 0.733025 12.3115 45)" stroke="#B8B8B8"/>
<line y1="-0.5" x2="4.42684" y2="-0.5" transform="matrix(0.680202 -0.733025 0.680202 0.733025 18.3339 38.5099)" stroke="#B8B8B8"/>
<line y1="-0.5" x2="4.42684" y2="-0.5" transform="matrix(0.680202 -0.733025 0.680202 0.733025 24.3561 32.0201)" stroke="#B8B8B8"/>
</svg>
